<svg xmlns="http://www.w3.org/2000/svg" xmlns:xlink="http://www.w3.org/1999/xlink" version="1.1" width="300" height="125" viewBox="0 0 300 125" xml:space="preserve">
<desc>Created with Fabric.js 3.6.3</desc>
<defs>
</defs>
<g transform="matrix(1 0 0 1 149.90245666358942 81.65632331898982)" style="" id="uidxu8idg94a">
		
<g xml:space="preserve" style="stroke: rgb(7,27,99); stroke-width: 0; stroke-dasharray:none; stroke-linecap: butt; stroke-dashoffset: 0; stroke-linejoin: miter; stroke-miterlimit: 4; fill: rgb(224,220,11); fill-rule: nonzero; opacity: 1; white-space: pre;"><path style="fill: rgb(96,219,251);" d="M-106.37-43.39L-125.71-43.39L-125.71-53.06L-106.37-53.06L-106.37-43.39ZM-87.03 14.63L-145.05 14.63L-145.05 4.96L-125.71 4.96L-125.71-24.05L-135.38-24.05L-135.38-33.72L-106.37-33.72L-106.37 4.96L-87.03 4.96L-87.03 14.63Z"/><path style="fill: rgb(96,219,251);" d="M-19.34 14.63L-67.69 14.63L-67.69 4.96L-77.36 4.96L-77.36-4.71L-58.02-4.71L-58.02 4.96L-29.01 4.96L-29.01-14.38L-67.69-14.38L-67.69-24.05L-77.36-24.05L-77.36-43.39L-67.69-43.39L-67.69-53.06L-19.34-53.06L-19.34-43.39L-9.67-43.39L-9.67-33.72L-29.01-33.72L-29.01-43.39L-58.02-43.39L-58.02-24.05L-19.34-24.05L-19.34-14.38L-9.67-14.38L-9.67 4.96L-19.34 4.96L-19.34 14.63Z"/><path style="fill: rgb(96,219,251);" d="M58.02 14.63L9.67 14.63L9.67 4.96L0.00 4.96L0.00-4.71L19.34-4.71L19.34 4.96L48.35 4.96L48.35-14.38L9.67-14.38L9.67-24.05L0.00-24.05L0.00-43.39L9.67-43.39L9.67-53.06L58.02-53.06L58.02-43.39L67.69-43.39L67.69-33.72L48.35-33.72L48.35-43.39L19.34-43.39L19.34-24.05L58.02-24.05L58.02-14.38L67.69-14.38L67.69 4.96L58.02 4.96L58.02 14.63Z"/><path style="fill: rgb(96,219,251);" d="M96.70 14.63L77.36 14.63L77.36-53.06L135.38-53.06L135.38-43.39L145.05-43.39L145.05-14.38L125.71-14.38L125.71-4.71L135.38-4.71L135.38 4.96L145.05 4.96L145.05 14.63L116.04 14.63L116.04 4.96L106.37 4.96L106.37-4.71L96.70-4.71L96.70 14.63ZM96.70-43.39L96.70-14.38L116.04-14.38L116.04-24.05L125.71-24.05L125.71-43.39L96.70-43.39Z"/></g></g>
</svg>